milan
1
  9.15008  45.41353999999998
  9.14985  45.413526
  9.149348  45.41355299999999
  9.14846  45.41322
  9.148099  45.41382900000001
  9.147994  45.414145
  9.147863  45.41436899999999
  9.147596  45.41479
  9.147567  45.41514099999999
  9.147269  45.415468
  9.146434  45.41609399999999
  9.145424  45.41731999999999
  9.145106  45.417623999999996
  9.143484  45.417015
  9.143294  45.416977
  9.143087  45.416876999999985
  9.141805  45.416512999999995
  9.141687  45.416817
  9.140436  45.416501
  9.139838  45.41590699999999
  9.139645  45.415809
  9.139603  45.41668299999999
  9.139478  45.41707199999999
  9.139367  45.417165
  9.138723  45.417165999999995
  9.138625  45.41720500000001
  9.136387  45.41682300000001
  9.138212  45.41471599999999
  9.138049  45.414756000000004
  9.137632  45.414723
  9.137276  45.414633
  9.136418  45.414138
  9.133749  45.41351099999999
  9.133489  45.41383100000001
  9.133309  45.41385499999999
  9.13283  45.414583
  9.132291  45.41509699999999
  9.13187  45.41531399999999
  9.130617  45.416618
  9.130835  45.41668899999999
  9.130712  45.417348999999994
  9.131006  45.41869299999999
  9.13099  45.419116
  9.13089  45.41942099999999
  9.130887000000001  45.41968399999998
  9.130822  45.419900999999996
  9.131272  45.419956
  9.131025  45.420953000000004
  9.131264  45.420879
  9.131381  45.420782
  9.131412  45.420631
  9.131428  45.420213999999994
  9.131469  45.420107
  9.131604  45.420047999999994
  9.131787  45.42002599999999
  9.132313  45.420113
  9.132234  45.42044999999999
  9.13229  45.42055200000001
  9.132357  45.420607000000004
  9.132622  45.420676
  9.132606  45.421079999999996
  9.132399  45.422909
  9.132368  45.42296799999999
  9.132241  45.423121
  9.132016  45.423294000000006
  9.1316  45.42355100000001
  9.128887  45.425022
  9.128614  45.425216999999996
  9.128504  45.425428999999994
  9.128411  45.42552899999999
  9.128017  45.42584399999999
  9.127921  45.42595399999999
  9.127187  45.42735999999999
  9.127094  45.42760299999998
  9.127033  45.427888
  9.127015  45.42921299999999
  9.127057  45.429345
  9.127001  45.42943699999999
  9.126798  45.42963199999999
  9.125968  45.430332
  9.121851  45.433866
  9.121612  45.43397499999999
  9.121578  45.43403899999999
  9.121612  45.43410199999999
  9.121765  45.434199
  9.122315  45.43439399999999
  9.122433  45.434442
  9.122454  45.434495999999996
  9.122423  45.43460999999999
  9.121879  45.435533
  9.121099  45.436845
  9.120708  45.43674800000001
  9.119225  45.438478999999994
  9.117719  45.439913999999995
  9.117228000000003  45.440315999999996
  9.116402  45.44174999999999
  9.116281  45.441827999999994
  9.115953  45.442460999999994
  9.115829  45.44256599999999
  9.115453  45.443051
  9.113916  45.44265800000001
  9.112541  45.44519699999999
  9.113471  45.44528199999999
  9.113444  45.445389000000006
  9.113198  45.44536699999999
  9.113095  45.445633
  9.112669  45.445519
  9.11258  45.445738
  9.111863  45.44737299999999
  9.111663  45.447353
  9.110848  45.449977
  9.110152  45.44997299999999
  9.109959  45.450354999999995
  9.109762  45.450306999999995
  9.109617  45.450271
  9.108827  45.450033
  9.108415  45.449836
  9.107972  45.449824
  9.107841  45.449861
  9.107332  45.44978100000001
  9.107114  45.44969300000001
  9.107058000000002  45.449611
  9.107272  45.449274
  9.106845  45.44848799999999
  9.106724  45.448408
  9.10653  45.44836899999999
  9.106094000000002  45.44819600000001
  9.105883  45.44817700000001
  9.105377  45.447993
  9.105812  45.447529
  9.104874  45.447279
  9.104795000000001  45.44740600000001
  9.103992  45.44715799999999
  9.103279  45.446873999999994
  9.103448  45.446613
  9.103634  45.446448
  9.103337  45.44658700000001
  9.102558  45.446521999999995
  9.101864  45.447009
  9.101667  45.44734100000001
  9.101232  45.447810999999994
  9.100789  45.447899
  9.100481  45.447892
  9.100402  45.447931
  9.10035  45.44789999999999
  9.101423  45.446374
  9.101385  45.44632300000001
  9.099361  45.446281
  9.099226  45.446347
  9.098321  45.447058999999996
  9.097233  45.448286999999986
  9.09651  45.447976
  9.096364  45.44797100000001
  9.095798  45.448335
  9.09596  45.44843199999999
  9.095988  45.448536999999995
  9.095671  45.44899699999999
  9.095567  45.449208999999996
  9.095554  45.44943299999999
  9.095264  45.449732999999995
  9.095295  45.449845
  9.094228  45.450937
  9.093906  45.451209999999996
  9.093464  45.451758000000005
  9.093246  45.45167300000001
  9.090731  45.452216
  9.090759  45.45228900000001
  9.08986  45.452411
  9.089749  45.452526
  9.089438  45.45256500000001
  9.089379  45.45239999999998
  9.089085  45.452422
  9.089078  45.45248499999999
  9.088365  45.452663
  9.088099  45.452666
  9.08677  45.452211999999996
  9.086588  45.452115
  9.086267  45.451937
  9.085471  45.45156099999999
  9.083955  45.450852000000005
  9.083816  45.45078099999999
  9.083383  45.450548000000005
  9.083148  45.450722
  9.082836  45.450528999999996
  9.082037  45.45018199999999
  9.081153  45.449844
  9.080315  45.450076
  9.079954  45.450288
  9.079698  45.450429
  9.079194  45.45093399999999
  9.07897  45.45125199999999
  9.078686  45.45166700000001
  9.078579  45.451618999999994
  9.078236  45.45173599999999
  9.077931  45.451368
  9.077834  45.45139299999999
  9.077038  45.45060600000001
  9.078191  45.44877699999999
  9.078191  45.44865200000001
  9.077917  45.448631
  9.077779  45.44856299999999
  9.076826  45.44756499999999
  9.076774  45.44756
  9.076763  45.447335999999986
  9.076787  45.447265
  9.076874  45.447182
  9.077029  45.44707799999999
  9.076984  45.446785000000006
  9.077198000000001  45.446577999999995
  9.077257  45.446310000000004
  9.077526  45.446125
  9.078121  45.445848999999995
  9.078145  45.445783999999996
  9.078086  45.445669
  9.078082  45.445345
  9.077999  45.445282
  9.077989  45.44522099999998
  9.078058  45.445168
  9.078175  45.44515300000001
  9.0784  45.444885
  9.078309  45.444621999999995
  9.078126  45.44454399999999
  9.078115  45.444444
  9.078303  45.444393000000005
  9.07887  45.444388
  9.078832  45.444216000000004
  9.078755  45.444128
  9.078361  45.443976
  9.078201  45.44395900000001
  9.078138  45.443864000000005
  9.078222  45.44378700000001
  9.078384  45.443765
  9.078869  45.443595999999985
  9.078896  45.44355
  9.078858  45.443464999999996
  9.078678  45.44320900000001
  9.078498  45.443101999999996
  9.078404  45.44310699999998
  9.076106  45.442066
  9.075759  45.44183700000001
  9.075828  45.441698999999986
  9.077345  45.43994399999999
  9.079777  45.437643
  9.07861  45.437074
  9.07843  45.437033
  9.078188  45.43682900000001
  9.077648  45.43662699999999
  9.077375  45.43643
  9.077146  45.436123
  9.076789  45.43578999999999
  9.076346  45.435254
  9.075958  45.43507700000001
  9.074746  45.43414699999999
  9.074158  45.433975000000004
  9.073694  45.433702
  9.073448  45.433422
  9.073244  45.43342499999999
  9.073071  45.433339999999994
  9.071131  45.433885999999994
  9.07093  45.433910999999995
  9.069611  45.432984
  9.066701  45.435082
  9.066358  45.434571000000005
  9.06605  45.434245
  9.06507  45.43280399999999
  9.064754  45.432522000000006
  9.064433  45.432741
  9.063939  45.433245
  9.063887  45.43343
  9.064331  45.43394399999999
  9.063564  45.43475999999999
  9.061439  45.43372899999999
  9.061505  45.434172000000004
  9.061142  45.434306
  9.059553  45.436348
  9.059249  45.436665
  9.058099  45.43754599999999
  9.058013  45.43770899999999
  9.056536  45.43739200000001
  9.055495  45.43935899999999
  9.054543  45.439179
  9.055268  45.441824999999994
  9.054387000000002  45.444201
  9.043536  45.44552199999999
  9.042068  45.445747999999995
  9.041856000000001  45.44572499999999
  9.041728  45.44577799999999
  9.041539  45.44592999999999
  9.040939  45.446833
  9.04153  45.447106
  9.04425  45.448007999999994
  9.044178  45.44820099999999
  9.045445  45.44872600000001
  9.045507  45.448706
  9.047247  45.449428999999995
  9.047407  45.449512999999996
  9.049601  45.45036699999999
  9.049742  45.450363
  9.050499  45.450493
  9.050173  45.450907
  9.049821  45.451488000000005
  9.050337  45.45163999999999
  9.050318  45.451677
  9.048616  45.45424099999999
  9.049559  45.45432999999999
  9.048094  45.45644999999999
  9.047803  45.45686200000001
  9.047437  45.45749200000001
  9.047466000000002  45.457655
  9.047593  45.457629999999995
  9.047426  45.457857
  9.04684  45.458618
  9.045707  45.45828099999999
  9.045505  45.458768
  9.045127  45.459246
  9.044227  45.461165
  9.043243  45.46307
  9.043729  45.463159
  9.043329  45.464809
  9.044204  45.465090999999994
  9.04441  45.46521
  9.045099  45.465439999999994
  9.045246  45.465265
  9.045983  45.463938999999996
  9.046338  45.463199
  9.047228  45.462099
  9.048891  45.462892999999994
  9.050233  45.463451000000006
  9.051987  45.46121699999999
  9.052366  45.461327
  9.052742  45.461363
  9.053988  45.46071299999999
  9.054311000000002  45.460735
  9.055052  45.460864
  9.05516  45.46068900000001
  9.055529  45.460691000000004
  9.055669  45.46071899999999
  9.055872  45.46081099999999
  9.056139  45.460815
  9.056277  45.460836
  9.056512  45.460933999999995
  9.057247  45.46117499999999
  9.058556  45.46152399999999
  9.058664  45.46155999999999
  9.058683  45.461629
  9.058621  45.461719
  9.058318  45.46201500000001
  9.058312  45.46206399999999
  9.058371  45.462082
  9.059121  45.462052
  9.061867  45.462131
  9.066386  45.46300299999999
  9.066772  45.463134
  9.066853  45.463081
  9.066908000000002  45.462739
  9.067104  45.462323
  9.067329  45.462185
  9.067525000000002  45.46221499999999
  9.067665  45.46215
  9.067547000000001  45.461836
  9.067805  45.461693
  9.067651  45.461378
  9.06787  45.461206
  9.068248  45.46119399999999
  9.068836000000001  45.460953
  9.06895  45.460884
  9.069204  45.460707000000006
  9.069632  45.460626
  9.069987  45.46039799999999
  9.070065  45.460280999999995
  9.070072  45.460139
  9.070157000000002  45.459989
  9.070215  45.45946300000001
  9.070084  45.459151000000006
  9.0701  45.458877
  9.070083  45.45871399999999
  9.070165  45.458530999999994
  9.070402  45.45822
  9.070605  45.458059
  9.07082  45.457975999999995
  9.071104  45.45793900000001
  9.071985  45.457983
  9.072051  45.457933999999995
  9.072064000000001  45.457831
  9.072341  45.457809999999995
  9.072479  45.457704
  9.072814  45.45738699999999
  9.072794  45.45721499999999
  9.072826  45.456732
  9.072875  45.45665400000001
  9.072871  45.456418
  9.07453  45.456671
  9.074886  45.456680000000006
  9.075092  45.45723199999999
  9.075041  45.457879999999996
  9.07478  45.458335000000005
  9.074992  45.45839599999999
  9.07483  45.45870200000001
  9.074624  45.458845000000004
  9.074106  45.459346
  9.07377  45.45946300000001
  9.073695  45.45964899999999
  9.073522  45.459782999999995
  9.073026  45.459935
  9.072494  45.46038999999999
  9.072449  45.46065399999999
  9.072055  45.461105
  9.072156  45.46121699999999
  9.072186  45.46131600000001
  9.072182  45.461435
  9.072094  45.461561999999994
  9.071967  45.461691
  9.071367  45.461854
  9.07106  45.462089000000006
  9.07074  45.462183
  9.070346  45.46268899999999
  9.070144  45.46307199999999
  9.070154  45.463269999999994
  9.07037  45.46359199999999
  9.069815  45.463913999999995
  9.069734  45.463902
  9.069617  45.464157
  9.069832000000002  45.46422599999999
  9.070054  45.464194000000006
  9.070814  45.463973
  9.071206  45.463807
  9.072201  45.46326599999999
  9.07365  45.462500000000006
  9.074152  45.46217399999999
  9.075622  45.46256399999999
  9.07584  45.462666999999996
  9.076072  45.462855
  9.076047  45.463002
  9.075952  45.463023000000014
  9.075202  45.464048000000005
  9.074513  45.46596199999999
  9.074425  45.466109
  9.074232  45.466229000000006
  9.074748  45.466311
  9.073836  45.468092000000006
  9.073866  45.46812
  9.073319  45.469657
  9.073616  45.46960399999999
  9.074191  45.469657
  9.074616  45.469668000000006
  9.075142  45.469839999999984
  9.076134  45.47075600000001
  9.0764  45.470983000000004
  9.076867  45.47129499999999
  9.077047  45.471382
  9.077495  45.47140900000001
  9.078092  45.47131
  9.078187  45.471434
  9.075078  45.47366899999999
  9.075768  45.47421299999999
  9.076033  45.474470999999994
  9.076216  45.47480600000001
  9.076082000000001  45.475027
  9.076069  45.475109
  9.075962000000002  45.475204
  9.075955  45.475362
  9.075733  45.475460999999996
  9.075717  45.47568799999999
  9.075888  45.47594800000001
  9.075868  45.47601900000001
  9.075724  45.476065
  9.075581  45.476060999999994
  9.075607  45.47620799999999
  9.075411  45.47619400000001
  9.075294  45.47623500000001
  9.075281  45.476352999999996
  9.075506  45.476527
  9.075516  45.476715000000006
  9.075660000000001  45.47681399999998
  9.075321  45.47698900000001
  9.075213  45.47679200000001
  9.075014  45.476884000000005
  9.074723  45.476890999999995
  9.074537  45.477064999999996
  9.074263  45.477194
  9.074100000000001  45.477154999999996
  9.073715  45.47727299999998
  9.073594  45.477532000000004
  9.073326  45.477614999999986
  9.073046  45.47763599999999
  9.07286  45.477815
  9.072367  45.478083999999996
  9.072171000000003  45.478321
  9.071033  45.479420000000005
  9.070426  45.47992599999999
  9.070299  45.47984799999999
  9.069578  45.48039
  9.069147  45.48059299999999
  9.06652  45.482057999999995
  9.066252  45.48218
  9.06603  45.482397999999996
  9.066115  45.482522
  9.066037  45.48261899999999
  9.066377  45.482935999999995
  9.066365  45.48384299999999
  9.066447  45.484312
  9.06604  45.48547899999999
  9.067162  45.485775
  9.067685  45.48606300000001
  9.067018  45.48783699999999
  9.065266  45.487763
  9.065394  45.48951499999998
  9.064296  45.48953
  9.064307  45.489694
  9.063024  45.48973300000001
  9.063065  45.489484999999995
  9.063196  45.48939599999999
  9.06313  45.489124000000004
  9.063319  45.488705
  9.063462  45.488568
  9.063995  45.488319999999995
  9.064486  45.48790199999999
  9.064499  45.48778099999999
  9.061781  45.488349
  9.061795  45.48945500000001
  9.061659  45.489903000000005
  9.061679  45.490219
  9.061271  45.490878
  9.06218  45.491236
  9.062491  45.491488
  9.062837  45.491179
  9.064291  45.49125199999999
  9.064075  45.492108
  9.063795  45.49239299999999
  9.063288  45.492831
  9.062602  45.493539999999996
  9.061818  45.49411599999999
  9.060355  45.493547
  9.059523  45.49419300000002
  9.058994  45.495227
  9.058972  45.495708
  9.058843  45.495927
  9.058817  45.49602699999999
  9.058491  45.496983
  9.056913  45.49696599999999
  9.056241  45.499026
  9.055568000000001  45.5005
  9.054011  45.50309099999999
  9.054783  45.503348
  9.054224  45.504193
  9.055628  45.504532
  9.057019  45.504768999999996
  9.057143  45.504583
  9.057297  45.504526
  9.057623  45.50450200000001
  9.058147  45.504232
  9.058291  45.504055
  9.058702  45.503800999999996
  9.059538  45.503797
  9.059654  45.50358399999999
  9.060068  45.503869
  9.060152  45.503688000000004
  9.06023  45.503679
  9.060682  45.503895
  9.062255  45.50165200000001
  9.063336  45.502016000000005
  9.063409  45.502070999999994
  9.06349  45.502119
  9.063558  45.50212599999999
  9.064953  45.50265199999999
  9.065182  45.502702
  9.065996  45.50300300000001
  9.065146  45.50392699999998
  9.066205  45.504524
  9.067711  45.504257
  9.068861  45.50451799999999
  9.069411  45.504885
  9.069591  45.504945
  9.069884  45.50498699999999
  9.070336  45.505099
  9.070568  45.505131
  9.071061  45.505202999999995
  9.071167  45.505116
  9.071838  45.50513399999999
  9.072434  45.505311
  9.072843  45.505309
  9.073197  45.505393999999995
  9.073442  45.505402
  9.073656  45.5052
  9.073767  45.50500999999999
  9.073757  45.504825
  9.072481  45.504585
  9.072766  45.503796
  9.072972  45.503448
  9.073446  45.50248
  9.073536000000002  45.502395
  9.074342  45.500871
  9.074418  45.500631
  9.075355  45.498842999999994
  9.07549  45.498502
  9.075546  45.49827599999999
  9.07555  45.498077
  9.07551  45.497934
  9.075373  45.497755999999995
  9.075128  45.497486
  9.075042000000002  45.49737300000001
  9.075431  45.49725
  9.076511  45.497267
  9.076966  45.49731499999999
  9.077294  45.497455
  9.077794  45.49777600000001
  9.078104  45.497358
  9.079009  45.49630899999999
  9.079353000000001  45.49646099999999
  9.081194000000002  45.497139999999995
  9.081106  45.497268
  9.081644  45.49749599999999
  9.08181  45.49742200000001
  9.081946  45.497155
  9.082161  45.497088999999995
  9.082693  45.49703699999999
  9.082991  45.497068999999996
  9.083261  45.49694099999999
  9.083927  45.496738
  9.083982  45.49685499999999
  9.084194000000002  45.497404
  9.086449  45.498176
  9.08726  45.49715299999999
  9.087397  45.497297
  9.087639000000001  45.497396000000016
  9.087766  45.497282
  9.088197  45.49713599999999
  9.088283  45.49716800000001
  9.08824  45.497229
  9.088291  45.49729099999999
  9.089033  45.497537
  9.089339  45.497632
  9.089291  45.497699999999995
  9.090066  45.49803
  9.090365  45.498160999999996
  9.090415  45.498368
  9.089939  45.498915999999994
  9.089997  45.498974000000004
  9.090603  45.499077
  9.090669  45.499293
  9.09019  45.49974999999999
  9.090368000000002  45.500243
  9.090773  45.501196
  9.091151  45.502226
  9.091215  45.502320000000005
  9.09161  45.50333499999999
  9.091722  45.50440799999999
  9.091915  45.506193
  9.091984  45.506424
  9.092932  45.505656
  9.093166  45.50555799999999
  9.093449  45.505434
  9.094514  45.50516499999999
  9.094617  45.50529900000001
  9.09564  45.506721
  9.098149  45.506102
  9.099191  45.505843
  9.098357  45.507955
  9.097466  45.509878
  9.096874  45.511810999999994
  9.096854  45.51187599999999
  9.096256  45.51234899999999
  9.096032  45.512676
  9.09581  45.51291200000001
  9.095526  45.51356
  9.095428  45.51386799999999
  9.0954  45.513976
  9.095373  45.514295000000004
  9.095351  45.51480999999999
  9.095253000000001  45.51511599999999
  9.09536  45.515478
  9.094941  45.515618
  9.093547  45.518699999999995
  9.093304  45.518784
  9.093387  45.51891999999999
  9.093464  45.519048
  9.093699  45.51897299999999
  9.093028  45.519762
  9.09573  45.52111800000001
  9.094707  45.522135999999996
  9.096744  45.523312
  9.095506  45.524021
  9.093921  45.524786000000006
  9.093606  45.525239
  9.093283  45.52553700000001
  9.093117  45.525827
  9.093295  45.526661
  9.094461  45.527646999999995
  9.093285  45.52810799999999
  9.093634  45.528772000000004
  9.095849  45.52861200000001
  9.09939  45.53142499999999
  9.099727  45.53049600000001
  9.101428  45.531098
  9.10195  45.530265
  9.100854  45.52927499999999
  9.101429  45.528603999999994
  9.10111  45.528403
  9.098889  45.529227
  9.098451  45.528404
  9.09792  45.528564
  9.097018000000002  45.528451
  9.0981  45.527336
  9.098952  45.52648099999999
  9.098677  45.526454
  9.098075  45.52617099999999
  9.097825  45.52616200000001
  9.09753  45.52628599999999
  9.097211  45.52610200000001
  9.098301  45.525084
  9.099157  45.52514
  9.099382  45.525202
  9.099789  45.525388
  9.100463  45.525462000000005
  9.101054  45.52545099999999
  9.101286  45.525188
  9.101684  45.524408
  9.102168  45.524072
  9.102974  45.52253199999999
  9.103024  45.522221
  9.103183  45.522056
  9.103416  45.521143
  9.103392  45.52078999999999
  9.103245  45.52041199999999
  9.103431  45.51985199999999
  9.10455  45.520063000000015
  9.103862  45.52067399999999
  9.107007  45.5224
  9.107521  45.52187800000001
  9.108024  45.52193100000001
  9.109456  45.522079
  9.109009  45.523301999999994
  9.109317  45.523375
  9.109692  45.522752999999994
  9.110154  45.522422
  9.110881  45.522147999999994
  9.111365  45.521575999999996
  9.111929  45.521077000000005
  9.113299  45.52011099999999
  9.115139000000001  45.519766999999995
  9.116331  45.519622999999996
  9.117154  45.519358
  9.117628  45.51907700000001
  9.118581  45.51828999999999
  9.118745  45.51834499999999
  9.118808  45.518376
  9.118126  45.51924199999999
  9.118288  45.51930400000001
  9.118011  45.52095
  9.120147  45.521115999999985
  9.120569  45.520853
  9.120731  45.51996199999999
  9.122729  45.520177
  9.122807000000002  45.51983800000001
  9.124017  45.51997299999999
  9.123657  45.52042600000001
  9.124003  45.52080200000001
  9.124238  45.52119799999999
  9.12434  45.521699
  9.12425  45.52212099999999
  9.125083  45.522136999999994
  9.125366  45.522217999999995
  9.129194  45.522318
  9.129153  45.522906
  9.128805  45.52344999999998
  9.128811  45.52422
  9.129025  45.52435400000001
  9.129324  45.524024000000004
  9.129652000000002  45.523851
  9.129945000000001  45.523593
  9.130269  45.523149
  9.130307  45.522945
  9.130259  45.522515
  9.130406  45.522218
  9.130752  45.52232000000001
  9.132148  45.522529
  9.13283  45.522818
  9.13608  45.5236
  9.136217  45.52310899999999
  9.135614  45.523022
  9.135762  45.522335
  9.134725  45.52218799999999
  9.13479  45.521859
  9.135074  45.520253
  9.136388  45.52041100000001
  9.137067  45.52049199999999
  9.137246  45.51933
  9.139855  45.519654
  9.14093  45.519771999999996
  9.14199  45.519909000000006
  9.141651  45.521241999999994
  9.143178  45.521403
  9.143369  45.521169
  9.143906000000001  45.521215999999995
  9.143976  45.5209
  9.144463  45.520936999999996
  9.144241  45.522043999999994
  9.14555  45.522181
  9.145913  45.52074399999999
  9.148841  45.521186
  9.149151  45.520274
  9.149184  45.520157
  9.148476000000002  45.52011499999999
  9.148659  45.519633999999996
  9.148014  45.519527999999994
  9.148601  45.518043
  9.148671000000002  45.51797499999999
  9.148765  45.517951000000004
  9.148863  45.517962
  9.150014000000002  45.51813799999999
  9.150412  45.51743200000001
  9.150413  45.51743
  9.150729000000002  45.517501999999986
  9.151742  45.517734999999995
  9.151872  45.51742800000001
  9.154193  45.517928999999995
  9.154142  45.518015000000005
  9.153992  45.51809999999999
  9.153862  45.51831499999999
  9.152756  45.519004
  9.152252  45.51932999999999
  9.151794  45.519618
  9.151266  45.52049399999999
  9.151676  45.52047699999999
  9.151971  45.52054900000001
  9.151506  45.522424
  9.152144  45.522508
  9.151845000000002  45.523584
  9.152953  45.523729
  9.152721  45.524721
  9.153057  45.524763
  9.152967  45.525105
  9.153988  45.525231
  9.154058  45.52491199999999
  9.155498  45.525076
  9.155365000000002  45.52555699999999
  9.156773  45.525737
  9.156563  45.52642300000001
  9.156359  45.52706499999999
  9.156027  45.5281
  9.157163  45.528321000000005
  9.156894  45.529408999999994
  9.157344  45.529457999999984
  9.157098  45.530341
  9.158132  45.53049
  9.157833  45.53170599999999
  9.158912  45.53206600000001
  9.158834  45.532808999999986
  9.161554  45.533152
  9.161274  45.533892999999985
  9.164619  45.534253
  9.164573  45.53441599999999
  9.166072  45.534587
  9.165957  45.535117
  9.167623  45.53527899999999
  9.167669000000002  45.53490599999999
  9.16914  45.535033999999996
  9.169162  45.534642000000005
  9.169558  45.534664
  9.171163  45.53481200000001
  9.171251  45.534413
  9.172368  45.53449
  9.172367  45.534294
  9.173228  45.53431500000001
  9.174596  45.534351999999984
  9.174411  45.535251
  9.176005  45.535303
  9.176068  45.53465099999999
  9.177995  45.53478499999999
  9.178417  45.534109
  9.17947  45.534665999999994
  9.179494  45.534330999999995
  9.180328  45.53448999999999
  9.180636  45.533474999999996
  9.182322  45.533712999999985
  9.182358  45.53355199999999
  9.183343  45.533686
  9.183688000000002  45.53251499999999
  9.184613  45.532684999999994
  9.184668  45.53239399999999
  9.184933  45.53200900000001
  9.185054  45.530851
  9.185034  45.530517999999994
  9.185225  45.52988400000001
  9.185624  45.529933
  9.186891  45.53007199999999
  9.187036  45.529399999999995
  9.186976  45.529377000000004
  9.186969  45.528808
  9.189344  45.52640300000001
  9.190797  45.526545999999996
  9.190698  45.52698199999999
  9.19084  45.526984999999996
  9.190804000000002  45.527092
  9.19303  45.52731800000001
  9.192964  45.52658400000001
  9.196447  45.527079
  9.196132  45.527874999999995
  9.195999  45.527859
  9.195836  45.52866699999999
  9.196922  45.528801
  9.197455  45.527307
  9.197823000000001  45.527373999999995
  9.198055  45.526611
  9.199486  45.526898999999986
  9.199193  45.527371999999986
  9.199598  45.52747099999999
  9.199479  45.52764
  9.200726  45.527838
  9.200308  45.52906999999999
  9.201504  45.52924599999999
  9.201835  45.528014
  9.202425  45.528135
  9.202353  45.528355
  9.203271  45.528542
  9.203367  45.528329
  9.205385  45.52858599999999
  9.206052  45.528667000000006
  9.206472  45.52725699999999
  9.207731  45.52735099999999
  9.20781  45.52750799999999
  9.20841  45.52754799999999
  9.209868  45.527668999999996
  9.210001  45.52767999999999
  9.210079  45.527612999999995
  9.210018  45.52750700000001
  9.210442  45.527533000000005
  9.211728  45.527618000000004
  9.212293  45.528594
  9.212154  45.52932100000001
  9.212223  45.529492999999995
  9.213595  45.52962099999999
  9.213593000000001  45.529072000000006
  9.214158  45.52893700000001
  9.215722  45.52896800000001
  9.216808  45.528986999999994
  9.216602  45.52863399999999
  9.216773  45.528619
  9.217192  45.528626
  9.217081  45.527717
  9.216602  45.526123999999996
  9.220158  45.526045
  9.220146  45.525503
  9.219753  45.524820999999996
  9.219908  45.524341
  9.220147  45.524368
  9.220477  45.522724000000004
  9.221814  45.52275899999999
  9.223064  45.52305499999999
  9.223571  45.522855
  9.223693  45.522982000000006
  9.223861000000001  45.522916
  9.223952  45.522878999999996
  9.224279  45.522926
  9.224322  45.52275800000002
  9.225513  45.52291300000002
  9.225508  45.52295800000001
  9.225884  45.522998
  9.225908  45.52284699999999
  9.226215  45.522898000000005
  9.226284  45.52262100000001
  9.226383  45.52218500000001
  9.228164  45.522388
  9.2296  45.522555
  9.229643  45.52238
  9.231288  45.52248299999999
  9.231537  45.521064
  9.231636  45.52051099999999
  9.233383  45.520617
  9.233772  45.519186
  9.233689  45.519175999999995
  9.233827  45.518393
  9.23434  45.518392000000006
  9.234977  45.51678600000001
  9.236168  45.51701299999999
  9.23627  45.516773
  9.238262  45.517193999999996
  9.237958  45.518035
  9.241331  45.518620999999996
  9.243365  45.518359
  9.244062  45.518350999999996
  9.244428  45.518254999999996
  9.244975  45.518356
  9.245226  45.51771099999999
  9.245443  45.51780399999999
  9.246859  45.518348
  9.247933  45.518768
  9.249164  45.51915299999999
  9.249955  45.519333
  9.250129  45.519011
  9.25115  45.519181
  9.251867  45.519295
  9.252868  45.51936499999999
  9.253381  45.519496999999994
  9.254367  45.519653
  9.255704000000001  45.519756
  9.255546  45.519246
  9.255637  45.51887800000001
  9.255502  45.518243999999996
  9.255756  45.518223
  9.257197  45.517568000000004
  9.257737  45.51770499999999
  9.257815  45.51758599999999
  9.259141  45.518224999999994
  9.258723  45.518593
  9.258724  45.518679
  9.258861  45.51868599999999
  9.258906  45.51909
  9.25905  45.519481000000006
  9.259601  45.519448999999994
  9.25959  45.51909200000001
  9.259658  45.518989
  9.259491  45.518862999999996
  9.259461  45.51872600000001
  9.259518  45.5184
  9.259621  45.518409999999996
  9.259826  45.518543
  9.260045  45.518438999999994
  9.260374  45.51871699999999
  9.260506  45.518761
  9.260486  45.518815999999994
  9.260618  45.51884999999999
  9.260869  45.51916500000001
  9.261278  45.519092
  9.261182  45.5183
  9.261402  45.518285000000006
  9.261439  45.517966
  9.262307  45.51782699999999
  9.261941  45.516678999999996
  9.262755  45.51654699999999
  9.26227  45.515083
  9.262597  45.515045
  9.262493  45.51473599999999
  9.264395  45.514469
  9.265245  45.515246
  9.268829  45.514949000000016
  9.268859  45.51509699999999
  9.268724  45.51545699999999
  9.268776  45.51614599999999
  9.269059  45.516107999999996
  9.268901  45.515628
  9.268929  45.515398000000005
  9.269031  45.515342999999994
  9.268998  45.514572
  9.268888  45.51409900000001
  9.268569  45.511627
  9.267609  45.51166700000001
  9.267629000000001  45.510935999999994
  9.267508  45.509975999999995
  9.267531  45.509762999999985
  9.26914  45.50967399999999
  9.269128  45.508100000000006
  9.271364  45.50845500000001
  9.271754  45.50840199999999
  9.271838  45.507603
  9.271802  45.506337
  9.271982  45.50608700000001
  9.272234  45.50592499999999
  9.272731  45.50579299999999
  9.27512  45.505615999999996
  9.275285  45.50529699999999
  9.275912  45.504866
  9.276677  45.504847999999996
  9.278398  45.504535
  9.277901  45.502674
  9.276067  45.502777
  9.275857  45.50164600000001
  9.274237  45.501532999999995
  9.274191  45.501121999999995
  9.271748  45.501135
  9.272702  45.504874
  9.272518  45.50503599999998
  9.271691  45.505038
  9.268767  45.50505499999999
  9.268289  45.504991000000004
  9.26824  45.50484699999999
  9.268068  45.50468999999999
  9.267795  45.504605
  9.266546  45.504546
  9.262671  45.503849999999986
  9.262171  45.503800999999996
  9.26136  45.50365200000001
  9.261648  45.502941
  9.261659  45.502592
  9.261559  45.502241
  9.261614  45.501756000000015
  9.261276  45.501068
  9.260503  45.499566999999985
  9.260626  45.499286000000005
  9.260676  45.49883
  9.260642  45.498572
  9.261398  45.49731799999999
  9.261618  45.496661
  9.262384  45.49428999999999
  9.261903  45.494245
  9.261307  45.48999500000001
  9.261439  45.48972999999999
  9.258583  45.489032999999985
  9.258874  45.48688800000001
  9.259317  45.48384899999999
  9.259691  45.483563999999994
  9.265191  45.483520999999996
  9.265058  45.47960599999999
  9.265025  45.47860999999999
  9.262515  45.478392
  9.262182  45.47852000000001
  9.261777  45.478433999999986
  9.262108  45.475874
  9.260642  45.47588399999999
  9.26076  45.473226999999994
  9.260776  45.47291200000001
  9.260443  45.47198800000001
  9.260641  45.470761
  9.260646  45.470721999999995
  9.261974  45.47077800000001
  9.262285  45.470788
  9.263946000000002  45.470988000000006
  9.266525  45.471298000000004
  9.267383  45.471671
  9.267817  45.471783
  9.268579  45.47198599999999
  9.270196  45.471596999999996
  9.271372  45.471563999999994
  9.272902  45.471855000000005
  9.272953  45.47010699999999
  9.273052  45.46750699999999
  9.271843  45.46746
  9.271924  45.466538
  9.272357  45.466571
  9.272394  45.466326
  9.271694  45.466264
  9.271738  45.465529999999994
  9.271836  45.465281000000004
  9.27202  45.464712000000006
  9.271883  45.463969
  9.271911  45.46273300000001
  9.27239  45.46246000000001
  9.272378  45.46201800000001
  9.272746  45.461146
  9.273249  45.45997599999999
  9.272184  45.460049
  9.270545  45.459892
  9.270758  45.458726000000006
  9.270384  45.45815700000001
  9.269718  45.45811899999999
  9.269834  45.457495
  9.266581  45.45710099999999
  9.264885  45.45676299999999
  9.265001  45.45512099999999
  9.26442  45.45512000000001
  9.264353  45.454888999999994
  9.264148  45.454839
  9.264052  45.45461099999999
  9.264997  45.452321
  9.265485  45.451844
  9.265428  45.451737
  9.265622  45.451438999999986
  9.26533  45.451254999999996
  9.265126  45.45130600000002
  9.265382  45.45088700000001
  9.265608  45.450571000000004
  9.265894  45.450704
  9.266175  45.45068999999999
  9.26665  45.45047799999999
  9.266548  45.45015000000001
  9.267322  45.44968599999999
  9.267567  45.449408999999996
  9.267748  45.44914200000001
  9.26777  45.448858
  9.267523  45.447953999999996
  9.26724  45.447382000000005
  9.266860000000001  45.446631999999994
  9.266889  45.445768
  9.267125  45.445328
  9.266906  45.443661000000006
  9.266745  45.442328
  9.266824  45.441956
  9.266809  45.44174799999999
  9.266626  45.44134699999999
  9.266955  45.439587
  9.267377  45.439167
  9.267495  45.438939
  9.267479  45.438697999999995
  9.267201  45.438292999999994
  9.26719  45.43687999999999
  9.266337  45.436641
  9.266425  45.436121
  9.266473  45.43523
  9.266776  45.434774
  9.266859  45.434367999999985
  9.266507  45.434242
  9.266159  45.434149
  9.265897  45.43398499999999
  9.265696  45.43379099999999
  9.264999  45.43290999999999
  9.264572  45.432494000000005
  9.264297  45.431758
  9.264126  45.43183500000001
  9.263953  45.431544
  9.262384  45.43066399999999
  9.262265  45.430701000000006
  9.260591  45.42978999999999
  9.25971  45.429624999999994
  9.258865  45.428808999999994
  9.257567000000002  45.42801500000001
  9.254358  45.4263
  9.254027  45.425878999999995
  9.253841000000001  45.425742
  9.253079  45.42539199999999
  9.252826  45.42535199999999
  9.252159  45.424992
  9.254405  45.423185
  9.25459  45.422936
  9.254308  45.422766
  9.253928  45.422747000000015
  9.251065  45.421791999999996
  9.248834  45.42275000000001
  9.247746  45.42278
  9.247403  45.42267
  9.24721  45.422695
  9.247042  45.42251300000001
  9.245905  45.42223400000001
  9.245576  45.42200499999999
  9.24426  45.421341
  9.242668  45.420467
  9.24064  45.41888999999999
  9.242635  45.418068
  9.244467  45.417323999999994
  9.245455  45.41681299999999
  9.247134  45.41592099999999
  9.247817  45.415498
  9.248253  45.415094999999994
  9.248698  45.41482599999999
  9.250517  45.41415200000001
  9.251001  45.413886
  9.247806  45.412074
  9.247077  45.411700999999994
  9.246967  45.411493
  9.24434  45.412316000000004
  9.242986  45.410292
  9.243227000000001  45.410051
  9.24306  45.40994400000001
  9.243752  45.409386
  9.243394  45.40904499999999
  9.243589  45.40894800000001
  9.243164  45.408487
  9.242754  45.408414
  9.241936  45.40827800000001
  9.241387  45.408153
  9.241026  45.40790799999999
  9.240758  45.407658
  9.240316  45.407729
  9.23987  45.407887
  9.239348  45.408213
  9.238979  45.40861900000001
  9.238011  45.40905
  9.237282  45.408863999999994
  9.237102  45.408981999999995
  9.236787  45.408775
  9.236685000000001  45.408786
  9.236521  45.40880500000001
  9.23656  45.408943
  9.234955  45.408504
  9.234584  45.408434
  9.233908  45.408348
  9.231816  45.40720399999999
  9.231621  45.40732799999999
  9.230047  45.407328
  9.229828  45.40724099999999
  9.228121  45.407250999999995
  9.226892  45.406614000000005
  9.226322  45.40690000000001
  9.22546  45.40772199999999
  9.224668  45.408273
  9.223401  45.408941999999996
  9.221042  45.40776399999999
  9.220966  45.407828
  9.218371  45.406518
  9.218468  45.40618800000001
  9.219148  45.405088000000006
  9.219143  45.40497799999999
  9.218905  45.40496799999999
  9.2185  45.404707
  9.21748  45.404167
  9.217152  45.40399
  9.217298  45.403668
  9.216832  45.40254699999999
  9.216846  45.402349
  9.216745000000001  45.400802
  9.216975  45.400027
  9.217121  45.399729
  9.2171  45.39922599999999
  9.217208  45.39887800000001
  9.217606  45.398532
  9.219145  45.396817
  9.218869  45.39672099999999
  9.215486  45.39609699999999
  9.215298  45.396654
  9.210861  45.39606299999999
  9.210755  45.396046
  9.210694  45.396331
  9.20959  45.396189
  9.208997  45.395262
  9.209252  45.393526
  9.209119  45.393335
  9.209218  45.393275
  9.209457  45.39232700000001
  9.207834  45.391931
  9.207764  45.392031
  9.207118  45.39241499999999
  9.206904  45.39242499999999
  9.206734  45.39251199999999
  9.206363  45.39244299999999
  9.206159  45.392708000000006
  9.205493  45.39251799999999
  9.204128  45.394982999999996
  9.204209  45.395233999999995
  9.204039  45.39540799999999
  9.203559  45.39544899999999
  9.20374  45.396888999999994
  9.202233  45.396966
  9.202113  45.396829
  9.201976  45.39680499999999
  9.201553  45.39697699999999
  9.200774  45.39693299999999
  9.200673  45.396821
  9.200733  45.39664
  9.200013  45.394111
  9.200016  45.393991
  9.200161  45.393865000000005
  9.20059  45.39358899999999
  9.201211  45.39294799999999
  9.202041  45.39185899999999
  9.20218  45.39100599999999
  9.201898  45.39078
  9.20131  45.390188999999985
  9.200459  45.389057
  9.200384  45.38885400000001
  9.199143  45.388687
  9.198963  45.388557999999996
  9.198912  45.388427
  9.197213  45.38704799999999
  9.195837  45.38657499999999
  9.194901  45.38643100000001
  9.194779000000002  45.386341
  9.193023  45.386073999999994
  9.192872  45.386537000000004
  9.192827  45.38700000000001
  9.192878  45.38716000000001
  9.192777  45.38728899999999
  9.192431  45.387313999999996
  9.19206  45.387789000000005
  9.19218  45.388164
  9.192103  45.38827599999999
  9.191332  45.387802
  9.191191  45.38798400000001
  9.19116  45.38812
  9.191212  45.38820799999999
  9.19131  45.388292
  9.191215  45.38917299999999
  9.191127  45.38925199999999
  9.190989  45.38948799999999
  9.191716  45.39006
  9.191615  45.390171999999986
  9.191651  45.390429000000005
  9.191677  45.39064199999999
  9.191597  45.39100799999999
  9.191418  45.391293999999995
  9.191579  45.391564
  9.191586  45.391755
  9.191438  45.391948
  9.19114  45.392004
  9.190683  45.39211
  9.190368  45.39209100000001
  9.190194  45.39199099999999
  9.189736  45.391586
  9.189213  45.391362999999984
  9.188643  45.390978999999994
  9.188429  45.390938999999996
  9.18826  45.390809999999995
  9.188137  45.390694
  9.187557  45.39048699999999
  9.187422  45.390542
  9.187273  45.39048999999999
  9.187313  45.390325
  9.187252  45.390337
  9.187181  45.390528
  9.186823  45.390806
  9.186684  45.390842000000006
  9.186596  45.390722
  9.186342000000002  45.38960099999999
  9.186453  45.3895
  9.185995000000002  45.389227
  9.184503  45.389726
  9.184201  45.389785999999994
  9.182877  45.38990299999999
  9.182498  45.39010100000001
  9.182942  45.39114399999999
  9.182905  45.39124199999999
  9.180067  45.392459
  9.179769  45.392635999999996
  9.179126  45.392706
  9.178473  45.39285799999999
  9.177646  45.393045
  9.177423  45.393057
  9.177071  45.393156000000005
  9.176945  45.39313399999999
  9.173272  45.393856
  9.173602  45.396464
  9.173948  45.40010199999998
  9.170869  45.40010899999999
  9.171115  45.402161
  9.17036  45.402137999999994
  9.168518  45.401537
  9.168392  45.401473
  9.167817  45.400636
  9.167675  45.400526
  9.166891  45.400200000000005
  9.166954000000002  45.39984199999999
  9.165603  45.39983
  9.166712  45.401546
  9.166455  45.40162600000001
  9.166326000000002  45.40171899999999
  9.166074  45.402316
  9.165952  45.402407000000004
  9.165705  45.40245300000001
  9.165035  45.402708999999994
  9.16472  45.40286499999999
  9.164608  45.40278200000001
  9.164456  45.402787
  9.164408  45.402639
  9.164584  45.402617
  9.164489  45.402463999999995
  9.164411  45.40243099999999
  9.163392  45.40274000000001
  9.163266  45.402729
  9.162717  45.40254999999999
  9.160338  45.402326
  9.1585  45.40191200000001
  9.158466  45.40185700000001
  9.158945  45.40106900000001
  9.158785  45.40088999999999
  9.157178  45.400476999999995
  9.15663  45.40078799999999
  9.156217  45.400873999999995
  9.158325  45.402318
  9.157227  45.40341299999999
  9.157907  45.40459200000001
  9.159552  45.407408
  9.159264000000002  45.407495999999995
  9.158865  45.407613999999995
  9.158851  45.40863499999999
  9.157714  45.41176900000001
  9.155841000000002  45.411933999999995
  9.15591  45.41252500000001
  9.155897  45.412870999999996
  9.155683  45.41374100000001
  9.155494  45.413929
  9.154959  45.415503
  9.154881  45.415456
  9.154473  45.41496699999999
  9.153893  45.41475
  9.153011  45.414534
  9.15235  45.41567599999999
  9.149951  45.414543
  9.151034  45.414026
  9.150684  45.413771
  9.150392  45.413609
  9.15008  45.41353999999998
END
END
